<svg width="42" height="31" viewBox="0 0 42 31" fill="none" xmlns="http://www.w3.org/2000/svg">
<path fill-rule="evenodd" clip-rule="evenodd" d="M34 3H8C5.23858 3 3 5.23858 3 8V23C3 25.7614 5.23858 28 8 28H34C36.7614 28 39 25.7614 39 23V8C39 5.23858 36.7614 3 34 3ZM8 0C3.58172 0 0 3.58172 0 8V23C0 27.4183 3.58172 31 8 31H34C38.4183 31 42 27.4183 42 23V8C42 3.58172 38.4183 0 34 0H8Z" fill="#0084B8"/>
<path fill-rule="evenodd" clip-rule="evenodd" d="M39.9902 4.12651L23.7952 18.3656C22.0819 19.8719 19.5125 19.8579 17.8158 18.333L1.99707 4.11563L4.00244 1.88438L19.8212 16.1017C20.3867 16.61 21.2432 16.6147 21.8143 16.1126L38.0093 1.8735L39.9902 4.12651Z" fill="#0084B8"/>
</svg>
