<svg width="9" height="8" viewBox="0 0 9 8" fill="none" xmlns="http://www.w3.org/2000/svg">
<path fill-rule="evenodd" clip-rule="evenodd" d="M4.10528 0.293859C4.29032 0.0888871 4.60649 0.0727324 4.81146 0.257776L8.206 3.32229C8.31102 3.4171 8.37095 3.55195 8.37095 3.69343C8.37095 3.8349 8.31102 3.96976 8.206 4.06456L4.81146 7.12908C4.60649 7.31412 4.29032 7.29797 4.10528 7.09299C3.92023 6.88802 3.93639 6.57185 4.14136 6.38681L6.57095 4.19343H0.516113C0.239971 4.19343 0.0161133 3.96957 0.0161133 3.69343C0.0161133 3.41728 0.239971 3.19343 0.516113 3.19343H6.57095L4.14136 1.00004C3.93639 0.815 3.92023 0.49883 4.10528 0.293859Z" fill="#F9F8F8"/>
</svg>
