<svg width="14" height="14" viewBox="0 0 14 14" fill="none" xmlns="http://www.w3.org/2000/svg">
<path fill-rule="evenodd" clip-rule="evenodd" d="M7.0006 0.600098C5.26245 0.600098 5.04431 0.607698 4.36164 0.638765C3.6803 0.669965 3.21523 0.777833 2.80829 0.936101C2.38735 1.09957 2.03028 1.31824 1.67454 1.67411C1.31854 2.02985 1.09987 2.38692 0.935869 2.80772C0.7772 3.21479 0.669199 3.68 0.638532 4.36107C0.607999 5.04374 0.599998 5.26201 0.599998 7.00016C0.599998 8.73831 0.607732 8.95578 0.638666 9.63846C0.669999 10.3198 0.777867 10.7849 0.936002 11.1918C1.0996 11.6127 1.31827 11.9698 1.67414 12.3256C2.02975 12.6816 2.38682 12.9008 2.80749 13.0642C3.21469 13.2225 3.6799 13.3304 4.3611 13.3616C5.04378 13.3926 5.26178 13.4002 6.9998 13.4002C8.73808 13.4002 8.95555 13.3926 9.63823 13.3616C10.3196 13.3304 10.7852 13.2225 11.1924 13.0642C11.6132 12.9008 11.9697 12.6816 12.3253 12.3256C12.6813 11.9698 12.9 11.6127 13.064 11.1919C13.2213 10.7849 13.3293 10.3197 13.3613 9.63859C13.392 8.95592 13.4 8.73831 13.4 7.00016C13.4 5.26201 13.392 5.04388 13.3613 4.3612C13.3293 3.67986 13.2213 3.21479 13.064 2.80785C12.9 2.38692 12.6813 2.02985 12.3253 1.67411C11.9693 1.31811 11.6133 1.09944 11.192 0.936101C10.784 0.777833 10.3186 0.669965 9.63729 0.638765C8.95462 0.607698 8.73728 0.600098 6.9986 0.600098H7.0006ZM6.42643 1.75343C6.59683 1.75316 6.78697 1.75343 7.00057 1.75343C8.70939 1.75343 8.91192 1.75956 9.58673 1.79023C10.2107 1.81876 10.5494 1.92303 10.775 2.01063C11.0737 2.12663 11.2866 2.2653 11.5105 2.4893C11.7345 2.7133 11.8732 2.92664 11.9894 3.22531C12.077 3.45064 12.1814 3.78931 12.2098 4.41332C12.2405 5.08799 12.2472 5.29066 12.2472 6.99868C12.2472 8.7067 12.2405 8.90937 12.2098 9.58404C12.1813 10.208 12.077 10.5467 11.9894 10.7721C11.8734 11.0707 11.7345 11.2834 11.5105 11.5073C11.2865 11.7313 11.0738 11.8699 10.775 11.9859C10.5497 12.0739 10.2107 12.1779 9.58673 12.2065C8.91206 12.2371 8.70939 12.2438 7.00057 12.2438C5.29162 12.2438 5.08908 12.2371 4.41441 12.2065C3.7904 12.1777 3.45173 12.0734 3.226 11.9858C2.92733 11.8698 2.71399 11.7311 2.48999 11.5071C2.26599 11.2831 2.12732 11.0703 2.01105 10.7715C1.92345 10.5462 1.81905 10.2075 1.79065 9.58351C1.75998 8.90883 1.75385 8.70616 1.75385 6.99708C1.75385 5.28799 1.75998 5.08639 1.79065 4.41172C1.81918 3.78771 1.92345 3.44904 2.01105 3.22344C2.12705 2.92477 2.26599 2.71143 2.48999 2.48743C2.71399 2.26343 2.92733 2.12476 3.226 2.00849C3.4516 1.92049 3.7904 1.81649 4.41441 1.78783C5.00482 1.76116 5.23362 1.75316 6.42643 1.75182V1.75343ZM10.4169 2.81611C9.99287 2.81611 9.64887 3.15971 9.64887 3.58385C9.64887 4.00785 9.99287 4.35185 10.4169 4.35185C10.8409 4.35185 11.1849 4.00785 11.1849 3.58385C11.1849 3.15984 10.8409 2.81611 10.4169 2.81611ZM7.00061 3.71345C5.18552 3.71345 3.71391 5.18506 3.71391 7.00015C3.71391 8.81523 5.18552 10.2862 7.00061 10.2862C8.8157 10.2862 10.2868 8.81523 10.2868 7.00015C10.2868 5.18506 8.8157 3.71345 7.00061 3.71345ZM7.00058 4.86679C8.17873 4.86679 9.13394 5.82187 9.13394 7.00015C9.13394 8.17829 8.17873 9.1335 7.00058 9.1335C5.82231 9.1335 4.86723 8.17829 4.86723 7.00015C4.86723 5.82187 5.82231 4.86679 7.00058 4.86679Z" fill="white"/>
</svg>
