<svg width="24" height="32" viewBox="0 0 24 32" fill="none" xmlns="http://www.w3.org/2000/svg">
<path d="M-0.00341797 30.0877V2.74378C-0.00288047 2.40167 0.0845197 2.066 0.249627 1.77195C0.414734 1.47791 0.65147 1.23632 0.935024 1.0725C1.21858 0.908672 1.53851 0.828646 1.8613 0.840805C2.18409 0.852963 2.49785 0.956857 2.7697 1.1416L22.8514 14.8097C23.1057 14.9823 23.3149 15.2198 23.4598 15.5005C23.6047 15.7811 23.6807 16.0958 23.6807 16.4157C23.6807 16.7356 23.6047 17.0503 23.4598 17.331C23.3149 17.6116 23.1057 17.8491 22.8514 18.0217L2.7697 31.6936C2.49785 31.8784 2.18409 31.9823 1.8613 31.9944C1.53851 32.0066 1.21858 31.9266 0.935024 31.7628C0.65147 31.5989 0.414734 31.3573 0.249627 31.0633C0.0845197 30.7693 -0.00288047 30.4336 -0.00341797 30.0915V30.0877Z" fill="white"/>
</svg>
