<?xml version="1.0" encoding="utf-8"?>
<!-- Generator: Adobe Illustrator 24.3.0, SVG Export Plug-In . SVG Version: 6.00 Build 0)  -->
<svg version="1.1" id="katman_1" xmlns="http://www.w3.org/2000/svg" xmlns:xlink="http://www.w3.org/1999/xlink" x="0px" y="0px"
	 viewBox="0 0 560 400" style="enable-background:new 0 0 560 400;" xml:space="preserve">
<style type="text/css">
	.st0{fill:#FFFFFF;}
	.st1{fill:#0060A8;}
	.st2{fill:#231F20;}
</style>
<g transform="matrix(1.2 0 0 1.2 100 140.261)">
	<path class="st0" d="M147.5,96.8c6.3,6.1,14.9,9.9,24.4,9.9l149.8,0l-32.4-96.5C284.9,0,274.5-7.2,262.1-7.2
		c-12.4,0-22.9,7.4-27.2,17.6l-10.8,31.4l0-47.4l-52.3,0c-9.5,0-18,3.7-24.2,9.8l0-9.8H94c-10,0-19,4.3-25.4,10.9v-11l-50.5,0
		c-21.8,0-39.7,17-39.7,39.5c0,10.4,4.6,19.9,11.3,26.9l-11.4,0v45.9l50.9,0c14.3,0,28.5-8.6,33.4-19l0.1-0.4
		c5.7,11.5,17.6,19.4,31.3,19.4l53.5,0L147.5,96.8"/>
	<g>
		<path class="st1" d="M-13.8,98.9l42.9,0c17.5,0,31.8-14.2,31.8-31.6c0-17.5-14.2-31.7-31.8-31.7l-11.1,0.1c-0.9,0-1.6-0.7-1.6-1.6
			s0.7-1.6,1.6-1.6l42.8,0l0-13.4H17.9c-8.3,0-15,6.7-15,15c0,8.3,6.7,15,15,15l11.2,0.1c10.1,0,18.2,8.1,18.2,18.1
			c0,10-8.1,18.1-18.2,18.1h-42.9L-13.8,98.9z"/>
		<path class="st1" d="M-13.8,82.2h42.9c8.3,0,15-6.7,15-15c0-8.3-6.7-15-15-15l-11.2-0.1c-10,0-18.2-8.1-18.2-18.1
			c0-10,8.1-18.1,18.2-18.1l42.8,0l0-13.5H17.9C0.4,2.3-13.8,16.5-13.8,34S0.4,65.6,17.9,65.6l11.1,0c0.8,0,1.6,0.7,1.6,1.6
			c0,0.9-0.7,1.5-1.6,1.5l-42.8,0L-13.8,82.2z"/>
		<path class="st1" d="M94.1,85.4c-7.4,0-13.5-5.9-13.5-13.5V29c0-7.3,6.1-13.3,13.5-13.3l45.8,0V2.3H94.1c-14.9,0-27,12-27,26.9
			v42.7c0,14.8,12.1,26.9,27,26.9l45.6,0l0-13.4L94.1,85.4z"/>
		<path class="st1" d="M83.8,29.2c0-5.7,4.6-10.3,10.3-10.3h45.8v13.5h-39.4c-3.2,0-3.2,3.1-3.2,3.1h32.9v13.4H83.8L83.8,29.2z"/>
		<path class="st1" d="M94.1,82.1c-5.7,0-10.3-4.6-10.3-10.2V52.1h46.3v13.4H97.2c0,3.2,3.2,3.2,3.2,3.2h39.3l0,13.4L94.1,82.1z"/>
		<path class="st1" d="M172,85.4c-7.4,0-13.5-6-13.5-13.5V29.2c0-7.4,6-13.4,13.4-13.4h44.3V2.3h-44.4c-14.9,0-27,12-27,26.9v42.7
			c0,14.8,12.2,26.9,27.1,26.9l44.3,0V35.5h-38.1v13.4h24.6v36.4L172,85.4z"/>
		<path class="st1" d="M161.7,71.9c0,5.7,4.6,10.3,10.3,10.3h27.7V52.1h-21.4v13.5h8l0,3.2h-7.9c-1.7,0-3.1-1.4-3.1-3.2L175,35.5
			c0,0,0-3.1,3.2-3.2h38.1l0-13.4l-44.3,0c-5.7,0-10.3,4.6-10.3,10.3L161.7,71.9"/>
		<path class="st1" d="M257.9,18.7c0.6-1.7,2.2-2.9,4.1-2.9c1.9,0,3.6,1.2,4.1,2.9l21.5,63.6h-31.5l0-15h10.5l-4.7-14.1l-15.4,45.5
			h-15.9L257.9,18.7z"/>
		<path class="st1" d="M292.1,85.4h-35.8v13.4h54.5l-28.3-83.8c-2.5-8.2-10.7-14.2-20.4-14.2c-9.7,0-17.9,6-20.4,14.2l-28.6,83.9
			h14.3l27.8-81.5c1.1-2.7,3.8-4.6,6.9-4.6c3.1,0,5.8,1.9,6.9,4.6L292.1,85.4z"/>
	</g>
	<g>
		<path class="st2" d="M300.5,13c2.5,0,4.9-1,6.7-2.8c1.8-1.8,2.8-4.2,2.8-6.7c0-2.5-1-4.9-2.8-6.7c-1.8-1.8-4.2-2.8-6.7-2.8
			c-5.2,0-9.5,4.2-9.5,9.4c0,2.5,1,4.9,2.8,6.7C295.6,12,298,13,300.5,13 M292.4,3.5c0-2.2,0.8-4.2,2.4-5.7c1.5-1.5,3.6-2.4,5.8-2.4
			c2.2,0,4.2,0.8,5.8,2.4c1.5,1.5,2.4,3.6,2.4,5.7c0,4.5-3.7,8.1-8.2,8.1c-2.2,0-4.2-0.8-5.8-2.4C293.2,7.7,292.4,5.7,292.4,3.5z"/>
		<path class="st2" d="M298.1,4.3v4.5h-1.4V-1.7h3.9c1.5,0,2.3,0,3.1,0.6c0.8,0.6,1.1,1.5,1.1,2.4c0,2.4-2,2.8-2.5,2.9l3,4.5h-1.7
			l-2.9-4.5L298.1,4.3z M298.1,3.2h2.8c0.4,0,0.9,0,1.3-0.1c1-0.2,1.3-0.9,1.3-1.7c0-0.3,0-1-0.6-1.5c-0.5-0.5-1.2-0.4-2-0.4h-2.7
			V3.2z"/>
	</g>
</g>
</svg>
