<svg width="24" height="24" viewBox="0 0 24 24" fill="none" xmlns="http://www.w3.org/2000/svg">
<path d="M14.0874 3.31907L15.4759 6.12937C15.6452 6.47233 15.8956 6.76889 16.2052 6.99339C16.5149 7.2179 16.8746 7.3636 17.2532 7.41789L20.3412 7.86221C20.7889 7.918 21.2114 8.10067 21.5587 8.38866C21.906 8.67664 22.1638 9.05795 22.3016 9.4876C22.4393 9.91726 22.4514 10.3773 22.3363 10.8136C22.2212 11.2499 21.9837 11.6442 21.6519 11.9499L19.4303 14.1715C19.1563 14.4384 18.9513 14.768 18.8333 15.1318C18.7152 15.4957 18.6876 15.8828 18.7527 16.2598L19.2859 19.3367C19.3404 19.7665 19.2758 20.2031 19.0991 20.5987C18.9224 20.9943 18.6405 21.3338 18.2841 21.5802C17.9277 21.8266 17.5105 21.9704 17.078 21.9959C16.6455 22.0214 16.2143 21.9277 15.8314 21.7249L13.0655 20.2697C12.7232 20.0888 12.3419 19.9942 11.9547 19.9942C11.5675 19.9942 11.1862 20.0888 10.8439 20.2697L8.07805 21.7249C7.68852 21.9311 7.24894 22.0238 6.80931 21.9926C6.36967 21.9614 5.94763 21.8074 5.59119 21.5481C5.23474 21.2889 4.9582 20.9348 4.79302 20.5262C4.62784 20.1176 4.58065 19.6708 4.65681 19.2367L5.17888 16.1598C5.24825 15.7856 5.22587 15.4001 5.11367 15.0364C5.00146 14.6727 4.80278 14.3416 4.53462 14.0715L2.31304 11.8499C1.99813 11.5424 1.77525 11.1531 1.66946 10.7259C1.56366 10.2986 1.57915 9.85033 1.71418 9.43139C1.84921 9.01246 2.09842 8.63949 2.43381 8.35443C2.76919 8.06937 3.17744 7.88352 3.61267 7.81777L6.71177 7.37346C7.08977 7.31735 7.44867 7.17095 7.75805 6.94664C8.06743 6.72234 8.31818 6.42675 8.48904 6.08494L9.86642 3.27464C10.0681 2.88665 10.3734 2.56216 10.7484 2.33718C11.1233 2.11219 11.5533 1.99553 11.9906 2.00013C12.4278 2.00473 12.8553 2.13043 13.2254 2.36325C13.5956 2.59608 13.8939 2.92693 14.0874 3.31907Z" fill="#D72638"/>
</svg>
