<svg width="45" height="45" viewBox="0 0 45 45" fill="none" xmlns="http://www.w3.org/2000/svg">
<path fill-rule="evenodd" clip-rule="evenodd" d="M10.7106 1.18377C11.0376 1.44052 11.4063 1.78719 11.8333 2.20891C12.7425 3.10368 13.8007 4.54118 14.7112 5.92563C15.6314 7.32485 16.4829 8.79617 16.9593 9.818L16.9599 9.81925C17.2314 10.4032 17.4745 10.9287 17.645 11.3885C17.8181 11.8551 17.9598 12.3627 17.9607 12.9144C17.9626 14.0677 17.3376 14.9606 16.718 15.8042C16.5436 16.0416 16.3942 16.2378 16.2646 16.408C15.9815 16.7797 15.7927 17.0277 15.6425 17.3125C15.492 17.598 15.4457 17.8128 15.518 18.1493C15.6188 18.6188 16.0503 19.6264 16.8783 20.9347C17.6805 22.2021 18.7785 23.6313 20.0905 24.9392C21.4024 26.2467 22.8091 27.3158 24.0516 28.0897C25.33 28.8859 26.3213 29.2992 26.8035 29.4021C27.15 29.476 27.3721 29.4282 27.6583 29.2792C27.9522 29.1262 28.215 28.9256 28.6162 28.6193C28.7719 28.5004 28.9485 28.3657 29.1558 28.2116L29.1631 28.2062C30.0141 27.574 30.9339 26.8906 32.0973 26.8918C32.6704 26.8924 33.1869 27.0542 33.6473 27.2421C34.088 27.422 34.5951 27.6774 35.1556 27.9598L35.2 27.9821C36.1768 28.4747 37.6318 29.3104 39.0402 30.2215C40.425 31.1174 41.8808 32.1598 42.7848 33.0706L42.786 33.0719C43.2089 33.499 43.5565 33.8676 43.8139 34.1944C44.0634 34.5112 44.3316 34.9142 44.4445 35.4123C44.5714 35.9723 44.4568 36.4387 44.3374 36.7658C44.2835 36.9137 44.2196 37.0561 44.1729 37.1598C44.1657 37.176 44.1586 37.1918 44.1516 37.2073C44.1083 37.3032 44.0701 37.388 44.0296 37.4849L44.0277 37.4894C43.6176 38.4618 43.1188 39.3944 42.5375 40.2753L42.5341 40.2803C41.3977 41.9876 40.3341 43.0951 38.6831 43.864C37.8264 44.2631 36.6023 44.6669 34.6944 44.429C32.8563 44.1998 30.4571 43.385 27.174 41.5463C21.9177 38.5986 18.2722 36.0585 13.5688 31.3685C8.87854 26.6917 6.57503 23.6417 3.34553 17.7753C0.0953796 11.8713 0.113199 8.25356 1.02722 6.30055C1.79942 4.65055 2.91809 3.59192 4.62 2.46129L4.6264 2.45704C5.50833 1.87764 6.44148 1.38023 7.41415 0.971013L7.42028 0.968434C7.51801 0.927825 7.6036 0.889475 7.70027 0.846143C7.71541 0.839354 7.73083 0.832443 7.74661 0.825383C7.85069 0.778809 7.99319 0.715272 8.14097 0.661595C8.46759 0.542964 8.9331 0.428876 9.4921 0.554914C9.99005 0.667188 10.3932 0.934503 10.7106 1.18377ZM8.57468 3.73745C7.77303 4.07492 7.00388 4.48491 6.27681 4.96229C4.82711 5.92576 4.19595 6.60729 3.74437 7.57219C3.43428 8.23478 2.90213 10.7491 5.97362 16.3285C9.06577 21.9455 11.1975 24.7674 15.6871 29.2442C20.1633 33.7076 23.5774 36.0897 28.6399 38.9288C31.7395 40.6647 33.7559 41.2888 35.0655 41.4521C36.3054 41.6067 36.9613 41.3566 37.4164 41.1446C38.3885 40.6918 39.0731 40.0652 40.035 38.6208C40.5137 37.8951 40.9246 37.1269 41.2626 36.3259C41.3158 36.1985 41.3678 36.0826 41.4091 35.9911C41.2608 35.8111 41.0267 35.5589 40.6555 35.184C39.9944 34.5179 38.7723 33.6213 37.4107 32.7404C36.073 31.8751 34.7129 31.0964 33.8505 30.6615C33.2312 30.3495 32.8307 30.1491 32.5136 30.0196C32.2046 29.8935 32.1051 29.8918 32.0942 29.8918C32.0889 29.8909 31.9582 29.867 30.9451 30.6195C30.8376 30.6995 30.722 30.7881 30.6001 30.8815C30.1396 31.2345 29.5895 31.6561 29.0434 31.9403C28.2309 32.3632 27.3008 32.5756 26.1778 32.3361C25.1905 32.1255 23.8503 31.4986 22.4656 30.6362C21.045 29.7514 19.457 28.5434 17.9727 27.0639C16.4886 25.5847 15.2537 23.9774 14.3434 22.5391C13.4589 21.1416 12.7984 19.774 12.5848 18.779C12.3426 17.6511 12.5629 16.7211 12.9887 15.9134C13.2643 15.3907 13.6751 14.8521 14.0179 14.4026C14.1198 14.269 14.2156 14.1433 14.3001 14.0283M8.57468 3.73745C8.70462 3.6834 8.82261 3.6307 8.91507 3.58923C9.09545 3.7372 9.34866 3.9715 9.72608 4.34428L9.72823 4.34639C10.4016 5.00885 11.3186 6.22673 12.2047 7.57408C13.0814 8.90714 13.8481 10.2445 14.2401 11.0853M14.2401 11.0853C14.5251 11.6981 14.712 12.1075 14.8323 12.4319ZM14.8323 12.4319C14.9502 12.7498 14.9606 12.8759 14.9607 12.9193ZM14.9607 12.9193C14.9607 12.9204 14.9607 12.9215 14.9607 12.9227ZM14.9607 12.9227C14.9615 12.9646 14.9642 13.1241 14.3001 14.0283Z" fill="#0084B8"/>
</svg>
